<svg width="135" height="113" viewBox="0 0 135 113" fill="none" xmlns="http://www.w3.org/2000/svg">
<path fill-rule="evenodd" clip-rule="evenodd" d="M51.605 39.678C60.607 27.975 80.788 36.347 94.38 30.579C111.944 23.125 123.851 -2.4299 142.593 1.0657C160.788 4.4593 164.17 30.262 174.594 45.54C182.645 57.34 192.102 67.942 197.302 81.249C202.353 94.174 204.221 107.872 204.377 121.755C204.538 135.942 204.314 150.515 198.229 163.342C192.085 176.291 179.496 184.334 169.716 194.817C158.232 207.126 151.343 225.946 135.242 230.854C119.336 235.703 102.164 227.248 87.239 219.958C73.646 213.319 60.367 204.128 53.225 190.797C46.476 178.199 57.356 160.269 49.035 148.649C37.705 132.828 0.246999 136.805 0.619999 117.336C0.990999 97.918 39.527 104.275 50.195 88.026C59.163 74.366 41.642 52.632 51.605 39.678Z" fill="#CADFE3"/>
</svg>
